<svg xmlns="http://www.w3.org/2000/svg" xmlns:xlink="http://www.w3.org/1999/xlink" width="500" zoomAndPan="magnify" viewBox="0 0 375 273.749983" height="365" preserveAspectRatio="xMidYMid meet" version="1.0"><defs><g/><clipPath id="eb0d684e96"><path d="M 344 233 L 374.828125 233 L 374.828125 271 L 344 271 Z M 344 233 " clip-rule="nonzero"/></clipPath><clipPath id="72500b4c3b"><path d="M 86.914062 0 L 99.910156 0 L 99.910156 273.5 L 86.914062 273.5 Z M 86.914062 0 " clip-rule="nonzero"/></clipPath><clipPath id="822bbcde3a"><path d="M 84.761719 2.296875 L 95.847656 2.296875 L 95.847656 271.214844 L 84.761719 271.214844 Z M 84.761719 2.296875 " clip-rule="nonzero"/></clipPath><clipPath id="c7d9da47b4"><path d="M 85.15625 2.3125 L 95.847656 2.3125 L 95.847656 271.1875 L 85.15625 271.1875 Z M 85.15625 2.3125 " clip-rule="nonzero"/></clipPath><clipPath id="f62b20cce8"><path d="M 0.171875 127.777344 L 93.414062 127.777344 L 93.414062 145.714844 L 0.171875 145.714844 Z M 0.171875 127.777344 " clip-rule="nonzero"/></clipPath><clipPath id="df9b181c81"><path d="M 93.414062 131.523438 L 93.414062 141.96875 C 93.414062 144.039062 91.738281 145.714844 89.667969 145.714844 L 3.953125 145.714844 C 1.882812 145.714844 0.207031 144.039062 0.207031 141.96875 L 0.207031 131.523438 C 0.207031 129.453125 1.882812 127.777344 3.953125 127.777344 L 89.667969 127.777344 C 91.738281 127.777344 93.414062 129.453125 93.414062 131.523438 Z M 93.414062 131.523438 " clip-rule="nonzero"/></clipPath><clipPath id="31193bd8be"><path d="M 0.171875 127.777344 L 93.40625 127.777344 L 93.40625 145.269531 L 0.171875 145.269531 Z M 0.171875 127.777344 " clip-rule="nonzero"/></clipPath><clipPath id="9a1ba7fb3b"><path d="M 93.40625 131.519531 L 93.40625 141.964844 C 93.40625 144.03125 91.730469 145.710938 89.660156 145.710938 L 3.976562 145.710938 C 1.90625 145.710938 0.230469 144.03125 0.230469 141.964844 L 0.230469 131.519531 C 0.230469 129.453125 1.90625 127.777344 3.976562 127.777344 L 89.660156 127.777344 C 91.730469 127.777344 93.40625 129.453125 93.40625 131.519531 Z M 93.40625 131.519531 " clip-rule="nonzero"/></clipPath><clipPath id="f4a59e7e82"><path d="M 4.574219 132.714844 L 12.644531 132.714844 L 12.644531 140.785156 L 4.574219 140.785156 Z M 4.574219 132.714844 " clip-rule="nonzero"/></clipPath><clipPath id="e2e9d89628"><path d="M 8.609375 132.714844 C 6.378906 132.714844 4.574219 134.523438 4.574219 136.75 C 4.574219 138.976562 6.378906 140.785156 8.609375 140.785156 C 10.835938 140.785156 12.644531 138.976562 12.644531 136.75 C 12.644531 134.523438 10.835938 132.714844 8.609375 132.714844 Z M 8.609375 132.714844 " clip-rule="nonzero"/></clipPath></defs><g fill="#000000" fill-opacity="1"><g transform="translate(112.96774, 47.458881)"><g><path d="M 12.953125 0 L 12.953125 -28.3125 L 1.546875 -28.3125 L 1.546875 -35.96875 L 32.515625 -35.96875 L 32.515625 -28.3125 L 21.109375 -28.3125 L 21.109375 0 Z M 12.953125 0 "/></g></g></g><g fill="#000000" fill-opacity="1"><g transform="translate(147.028105, 47.458881)"><g><path d="M 26.5625 0 L 26.5625 -14.484375 L 12.484375 -14.484375 L 12.484375 0 L 4.3125 0 L 4.3125 -35.96875 L 12.484375 -35.96875 L 12.484375 -22.140625 L 26.5625 -22.140625 L 26.5625 -35.96875 L 34.734375 -35.96875 L 34.734375 0 Z M 26.5625 0 "/></g></g></g><g fill="#000000" fill-opacity="1"><g transform="translate(186.071659, 47.458881)"><g><path d="M 4.3125 0 L 4.3125 -35.96875 L 27.953125 -35.96875 L 27.953125 -29.078125 L 12.4375 -29.078125 L 12.4375 -21.625 L 26.5625 -21.625 L 26.5625 -14.796875 L 12.4375 -14.796875 L 12.4375 -6.9375 L 28.515625 -6.9375 L 28.515625 0 Z M 4.3125 0 "/></g></g></g><g fill="#000000" fill-opacity="1"><g transform="translate(112.96774, 118.402585)"><g><path d="M 12.078125 0 L 0.515625 -35.96875 L 9.203125 -35.96875 L 12.640625 -25.015625 L 16.4375 -13.203125 L 20.546875 -25.015625 L 24.40625 -35.96875 L 32.15625 -35.96875 L 36.015625 -25.015625 L 40.171875 -13.046875 L 44.03125 -25.015625 L 47.46875 -35.96875 L 56.09375 -35.96875 L 44.484375 0 L 36.46875 0 L 28.3125 -23.265625 L 20.140625 0 Z M 12.078125 0 "/></g></g></g><g fill="#000000" fill-opacity="1"><g transform="translate(169.580886, 118.402585)"><g><path d="M 3.90625 0 L 3.90625 -26.96875 L 11.71875 -26.96875 L 11.71875 0 Z M 2.78125 -35.703125 C 2.78125 -37.140625 3.25 -38.3125 4.1875 -39.21875 C 5.125 -40.132812 6.332031 -40.59375 7.8125 -40.59375 C 9.3125 -40.59375 10.523438 -40.132812 11.453125 -39.21875 C 12.378906 -38.3125 12.84375 -37.140625 12.84375 -35.703125 C 12.84375 -34.265625 12.378906 -33.09375 11.453125 -32.1875 C 10.523438 -31.28125 9.3125 -30.828125 7.8125 -30.828125 C 6.332031 -30.828125 5.125 -31.28125 4.1875 -32.1875 C 3.25 -33.09375 2.78125 -34.265625 2.78125 -35.703125 Z M 2.78125 -35.703125 "/></g></g></g><g fill="#000000" fill-opacity="1"><g transform="translate(185.198312, 118.402585)"><g><path d="M 3.90625 0 L 3.90625 -26.96875 L 9.703125 -26.96875 L 10.53125 -23.9375 C 11.625 -25.207031 12.945312 -26.148438 14.5 -26.765625 C 16.0625 -27.378906 17.734375 -27.6875 19.515625 -27.6875 C 23.046875 -27.6875 25.8125 -26.585938 27.8125 -24.390625 C 29.820312 -22.203125 30.828125 -19.242188 30.828125 -15.515625 L 30.828125 0 L 23.015625 0 L 23.015625 -14.6875 C 23.015625 -16.675781 22.539062 -18.226562 21.59375 -19.34375 C 20.65625 -20.457031 19.347656 -21.015625 17.671875 -21.015625 C 15.890625 -21.015625 14.453125 -20.394531 13.359375 -19.15625 C 12.265625 -17.925781 11.71875 -16.25 11.71875 -14.125 L 11.71875 0 Z M 3.90625 0 "/></g></g></g><g fill="#000000" fill-opacity="1"><g transform="translate(219.412785, 118.402585)"><g><path d="M 15.71875 0.71875 C 13.050781 0.71875 10.6875 0.113281 8.625 -1.09375 C 6.570312 -2.3125 4.953125 -3.988281 3.765625 -6.125 C 2.585938 -8.269531 2 -10.734375 2 -13.515625 C 2 -16.285156 2.585938 -18.734375 3.765625 -20.859375 C 4.953125 -22.984375 6.570312 -24.648438 8.625 -25.859375 C 10.6875 -27.078125 13.050781 -27.6875 15.71875 -27.6875 C 17.394531 -27.6875 18.953125 -27.4375 20.390625 -26.9375 C 21.828125 -26.445312 23.128906 -25.753906 24.296875 -24.859375 L 24.296875 -38.015625 L 32.109375 -38.015625 L 32.109375 0 L 26.296875 0 L 25.375 -3.078125 C 24.175781 -1.878906 22.753906 -0.945312 21.109375 -0.28125 C 19.472656 0.382812 17.675781 0.71875 15.71875 0.71875 Z M 9.703125 -13.515625 C 9.703125 -11.316406 10.394531 -9.515625 11.78125 -8.109375 C 13.175781 -6.710938 14.96875 -6.015625 17.15625 -6.015625 C 19.351562 -6.015625 21.132812 -6.710938 22.5 -8.109375 C 23.875 -9.515625 24.5625 -11.316406 24.5625 -13.515625 C 24.5625 -15.703125 23.875 -17.5 22.5 -18.90625 C 21.132812 -20.3125 19.351562 -21.015625 17.15625 -21.015625 C 14.96875 -21.015625 13.175781 -20.3125 11.78125 -18.90625 C 10.394531 -17.5 9.703125 -15.703125 9.703125 -13.515625 Z M 9.703125 -13.515625 "/></g></g></g><g fill="#000000" fill-opacity="1"><g transform="translate(255.425316, 118.402585)"><g><path d="M 17.15625 0.71875 C 14.175781 0.71875 11.546875 0.117188 9.265625 -1.078125 C 6.992188 -2.273438 5.210938 -3.941406 3.921875 -6.078125 C 2.640625 -8.222656 2 -10.703125 2 -13.515625 C 2 -16.316406 2.640625 -18.78125 3.921875 -20.90625 C 5.210938 -23.03125 6.992188 -24.691406 9.265625 -25.890625 C 11.546875 -27.085938 14.175781 -27.6875 17.15625 -27.6875 C 20.132812 -27.6875 22.765625 -27.085938 25.046875 -25.890625 C 27.328125 -24.691406 29.097656 -23.03125 30.359375 -20.90625 C 31.628906 -18.78125 32.265625 -16.316406 32.265625 -13.515625 C 32.265625 -10.703125 31.628906 -8.222656 30.359375 -6.078125 C 29.097656 -3.941406 27.328125 -2.273438 25.046875 -1.078125 C 22.765625 0.117188 20.132812 0.71875 17.15625 0.71875 Z M 9.703125 -13.515625 C 9.703125 -11.316406 10.394531 -9.515625 11.78125 -8.109375 C 13.175781 -6.710938 14.96875 -6.015625 17.15625 -6.015625 C 19.351562 -6.015625 21.132812 -6.710938 22.5 -8.109375 C 23.875 -9.515625 24.5625 -11.316406 24.5625 -13.515625 C 24.5625 -15.734375 23.875 -17.535156 22.5 -18.921875 C 21.132812 -20.316406 19.351562 -21.015625 17.15625 -21.015625 C 14.96875 -21.015625 13.175781 -20.316406 11.78125 -18.921875 C 10.394531 -17.535156 9.703125 -15.734375 9.703125 -13.515625 Z M 9.703125 -13.515625 "/></g></g></g><g fill="#000000" fill-opacity="1"><g transform="translate(289.691171, 118.402585)"><g><path d="M 10.421875 0 L 0.46875 -26.96875 L 8.734375 -26.96875 L 11.875 -18.03125 L 14.546875 -10.484375 L 17.3125 -18.03125 L 20.65625 -26.96875 L 26.96875 -26.96875 L 30.3125 -18.03125 L 33.078125 -10.421875 L 35.75 -18.03125 L 38.9375 -26.96875 L 47.15625 -26.96875 L 37.203125 0 L 29.953125 0 L 23.84375 -16.4375 L 17.671875 0 Z M 10.421875 0 "/></g></g></g><g fill="#000000" fill-opacity="1"><g transform="translate(112.96774, 189.346288)"><g><path d="M 20.8125 0.71875 C 17.175781 0.71875 13.953125 -0.078125 11.140625 -1.671875 C 8.335938 -3.265625 6.144531 -5.460938 4.5625 -8.265625 C 2.988281 -11.078125 2.203125 -14.316406 2.203125 -17.984375 C 2.203125 -21.648438 2.988281 -24.882812 4.5625 -27.6875 C 6.144531 -30.5 8.332031 -32.703125 11.125 -34.296875 C 13.914062 -35.890625 17.125 -36.6875 20.75 -36.6875 C 23.800781 -36.6875 26.59375 -36.101562 29.125 -34.9375 C 31.664062 -33.769531 33.800781 -32.125 35.53125 -30 C 37.257812 -27.875 38.460938 -25.375 39.140625 -22.5 L 30.71875 -22.5 C 30.03125 -24.488281 28.8125 -26.054688 27.0625 -27.203125 C 25.320312 -28.347656 23.304688 -28.921875 21.015625 -28.921875 C 18.992188 -28.921875 17.1875 -28.457031 15.59375 -27.53125 C 14 -26.613281 12.753906 -25.332031 11.859375 -23.6875 C 10.972656 -22.039062 10.53125 -20.140625 10.53125 -17.984375 C 10.53125 -15.828125 10.972656 -13.925781 11.859375 -12.28125 C 12.753906 -10.632812 13.988281 -9.347656 15.5625 -8.421875 C 17.144531 -7.492188 18.945312 -7.03125 20.96875 -7.03125 C 23.320312 -7.03125 25.390625 -7.640625 27.171875 -8.859375 C 28.953125 -10.078125 30.222656 -11.710938 30.984375 -13.765625 L 39.40625 -13.765625 C 38.820312 -10.859375 37.65625 -8.316406 35.90625 -6.140625 C 34.164062 -3.960938 32 -2.273438 29.40625 -1.078125 C 26.820312 0.117188 23.957031 0.71875 20.8125 0.71875 Z M 20.8125 0.71875 "/></g></g></g><g fill="#000000" fill-opacity="1"><g transform="translate(154.425825, 189.346288)"><g><path d="M 3.90625 0 L 3.90625 -38.015625 L 11.71875 -38.015625 L 11.71875 0 Z M 3.90625 0 "/></g></g></g><g fill="#000000" fill-opacity="1"><g transform="translate(170.043251, 189.346288)"><g><path d="M 16.640625 0.71875 C 13.765625 0.71875 11.222656 0.117188 9.015625 -1.078125 C 6.804688 -2.273438 5.082031 -3.941406 3.84375 -6.078125 C 2.613281 -8.222656 2 -10.703125 2 -13.515625 C 2 -16.316406 2.625 -18.78125 3.875 -20.90625 C 5.125 -23.03125 6.851562 -24.691406 9.0625 -25.890625 C 11.269531 -27.085938 13.832031 -27.6875 16.75 -27.6875 C 19.832031 -27.6875 22.492188 -27 24.734375 -25.625 C 26.984375 -24.257812 28.695312 -22.34375 29.875 -19.875 C 31.050781 -17.414062 31.554688 -14.539062 31.390625 -11.25 L 9.765625 -11.25 C 10.140625 -9.40625 10.957031 -7.992188 12.21875 -7.015625 C 13.488281 -6.035156 15.015625 -5.546875 16.796875 -5.546875 C 18.097656 -5.546875 19.285156 -5.789062 20.359375 -6.28125 C 21.441406 -6.78125 22.3125 -7.476562 22.96875 -8.375 L 30.875 -8.375 C 29.707031 -5.53125 27.875 -3.300781 25.375 -1.6875 C 22.875 -0.0820312 19.960938 0.71875 16.640625 0.71875 Z M 9.8125 -16.1875 L 23.84375 -16.1875 C 23.394531 -17.832031 22.5625 -19.125 21.34375 -20.0625 C 20.125 -21 18.609375 -21.46875 16.796875 -21.46875 C 15.085938 -21.46875 13.609375 -21 12.359375 -20.0625 C 11.109375 -19.125 10.257812 -17.832031 9.8125 -16.1875 Z M 9.8125 -16.1875 "/></g></g></g><g fill="#000000" fill-opacity="1"><g transform="translate(203.384395, 189.346288)"><g><path d="M 12.890625 0.515625 C 9.710938 0.515625 7.195312 -0.226562 5.34375 -1.71875 C 3.488281 -3.207031 2.5625 -5.253906 2.5625 -7.859375 C 2.5625 -10.359375 3.390625 -12.351562 5.046875 -13.84375 C 6.710938 -15.332031 8.953125 -16.078125 11.765625 -16.078125 L 21.53125 -16.078125 L 21.53125 -17.3125 C 21.53125 -18.644531 21.050781 -19.710938 20.09375 -20.515625 C 19.132812 -21.328125 17.882812 -21.734375 16.34375 -21.734375 C 15.070312 -21.734375 13.988281 -21.441406 13.09375 -20.859375 C 12.207031 -20.273438 11.644531 -19.503906 11.40625 -18.546875 L 3.90625 -18.546875 C 4.382812 -21.492188 5.707031 -23.753906 7.875 -25.328125 C 10.050781 -26.898438 12.851562 -27.6875 16.28125 -27.6875 C 20.320312 -27.6875 23.484375 -26.664062 25.765625 -24.625 C 28.046875 -22.59375 29.1875 -19.796875 29.1875 -16.234375 L 29.1875 0 L 23.375 0 L 22.5 -3.140625 C 20.132812 -0.703125 16.929688 0.515625 12.890625 0.515625 Z M 10.28125 -8.171875 C 10.28125 -7.242188 10.679688 -6.5 11.484375 -5.9375 C 12.285156 -5.375 13.351562 -5.09375 14.6875 -5.09375 C 16.644531 -5.09375 18.265625 -5.65625 19.546875 -6.78125 C 20.828125 -7.914062 21.503906 -9.390625 21.578125 -11.203125 L 14.171875 -11.203125 C 13.015625 -11.203125 12.078125 -10.925781 11.359375 -10.375 C 10.640625 -9.832031 10.28125 -9.097656 10.28125 -8.171875 Z M 10.28125 -8.171875 "/></g></g></g><g fill="#000000" fill-opacity="1"><g transform="translate(235.954938, 189.346288)"><g><path d="M 3.90625 0 L 3.90625 -26.96875 L 9.703125 -26.96875 L 10.53125 -23.9375 C 11.625 -25.207031 12.945312 -26.148438 14.5 -26.765625 C 16.0625 -27.378906 17.734375 -27.6875 19.515625 -27.6875 C 23.046875 -27.6875 25.8125 -26.585938 27.8125 -24.390625 C 29.820312 -22.203125 30.828125 -19.242188 30.828125 -15.515625 L 30.828125 0 L 23.015625 0 L 23.015625 -14.6875 C 23.015625 -16.675781 22.539062 -18.226562 21.59375 -19.34375 C 20.65625 -20.457031 19.347656 -21.015625 17.671875 -21.015625 C 15.890625 -21.015625 14.453125 -20.394531 13.359375 -19.15625 C 12.265625 -17.925781 11.71875 -16.25 11.71875 -14.125 L 11.71875 0 Z M 3.90625 0 "/></g></g></g><g fill="#000000" fill-opacity="1"><g transform="translate(270.169411, 189.346288)"><g><path d="M 3.90625 0 L 3.90625 -26.96875 L 11.71875 -26.96875 L 11.71875 0 Z M 2.78125 -35.703125 C 2.78125 -37.140625 3.25 -38.3125 4.1875 -39.21875 C 5.125 -40.132812 6.332031 -40.59375 7.8125 -40.59375 C 9.3125 -40.59375 10.523438 -40.132812 11.453125 -39.21875 C 12.378906 -38.3125 12.84375 -37.140625 12.84375 -35.703125 C 12.84375 -34.265625 12.378906 -33.09375 11.453125 -32.1875 C 10.523438 -31.28125 9.3125 -30.828125 7.8125 -30.828125 C 6.332031 -30.828125 5.125 -31.28125 4.1875 -32.1875 C 3.25 -33.09375 2.78125 -34.265625 2.78125 -35.703125 Z M 2.78125 -35.703125 "/></g></g></g><g fill="#000000" fill-opacity="1"><g transform="translate(285.786837, 189.346288)"><g><path d="M 3.90625 0 L 3.90625 -26.96875 L 9.703125 -26.96875 L 10.53125 -23.9375 C 11.625 -25.207031 12.945312 -26.148438 14.5 -26.765625 C 16.0625 -27.378906 17.734375 -27.6875 19.515625 -27.6875 C 23.046875 -27.6875 25.8125 -26.585938 27.8125 -24.390625 C 29.820312 -22.203125 30.828125 -19.242188 30.828125 -15.515625 L 30.828125 0 L 23.015625 0 L 23.015625 -14.6875 C 23.015625 -16.675781 22.539062 -18.226562 21.59375 -19.34375 C 20.65625 -20.457031 19.347656 -21.015625 17.671875 -21.015625 C 15.890625 -21.015625 14.453125 -20.394531 13.359375 -19.15625 C 12.265625 -17.925781 11.71875 -16.25 11.71875 -14.125 L 11.71875 0 Z M 3.90625 0 "/></g></g></g><g fill="#000000" fill-opacity="1"><g transform="translate(320.00131, 189.346288)"><g><path d="M 17.0625 11.40625 C 13.15625 11.40625 9.976562 10.515625 7.53125 8.734375 C 5.082031 6.953125 3.6875 4.503906 3.34375 1.390625 L 10.9375 1.390625 C 11.21875 2.554688 11.878906 3.460938 12.921875 4.109375 C 13.960938 4.765625 15.289062 5.09375 16.90625 5.09375 C 21.21875 5.09375 23.375 2.898438 23.375 -1.484375 L 23.375 -3.390625 C 22.28125 -2.535156 21.019531 -1.875 19.59375 -1.40625 C 18.175781 -0.945312 16.660156 -0.71875 15.046875 -0.71875 C 12.515625 -0.71875 10.265625 -1.289062 8.296875 -2.4375 C 6.328125 -3.582031 4.785156 -5.175781 3.671875 -7.21875 C 2.554688 -9.257812 2 -11.597656 2 -14.234375 C 2 -16.867188 2.554688 -19.195312 3.671875 -21.21875 C 4.785156 -23.238281 6.328125 -24.820312 8.296875 -25.96875 C 10.265625 -27.113281 12.515625 -27.6875 15.046875 -27.6875 C 16.972656 -27.6875 18.75 -27.367188 20.375 -26.734375 C 22 -26.109375 23.394531 -25.191406 24.5625 -23.984375 L 25.375 -26.96875 L 31.1875 -26.96875 L 31.1875 -1.484375 C 31.1875 1.179688 30.613281 3.484375 29.46875 5.421875 C 28.320312 7.359375 26.6875 8.835938 24.5625 9.859375 C 22.4375 10.890625 19.9375 11.40625 17.0625 11.40625 Z M 9.703125 -14.234375 C 9.703125 -12.140625 10.351562 -10.441406 11.65625 -9.140625 C 12.957031 -7.835938 14.640625 -7.1875 16.703125 -7.1875 C 18.753906 -7.1875 20.4375 -7.835938 21.75 -9.140625 C 23.070312 -10.441406 23.734375 -12.140625 23.734375 -14.234375 C 23.734375 -16.285156 23.070312 -17.960938 21.75 -19.265625 C 20.4375 -20.566406 18.753906 -21.21875 16.703125 -21.21875 C 14.640625 -21.21875 12.957031 -20.566406 11.65625 -19.265625 C 10.351562 -17.960938 9.703125 -16.285156 9.703125 -14.234375 Z M 9.703125 -14.234375 "/></g></g></g><g fill="#000000" fill-opacity="1"><g transform="translate(112.96774, 260.289991)"><g><path d="M 20.8125 0.71875 C 17.175781 0.71875 13.953125 -0.078125 11.140625 -1.671875 C 8.335938 -3.265625 6.144531 -5.460938 4.5625 -8.265625 C 2.988281 -11.078125 2.203125 -14.316406 2.203125 -17.984375 C 2.203125 -21.648438 2.988281 -24.882812 4.5625 -27.6875 C 6.144531 -30.5 8.332031 -32.703125 11.125 -34.296875 C 13.914062 -35.890625 17.125 -36.6875 20.75 -36.6875 C 23.800781 -36.6875 26.59375 -36.101562 29.125 -34.9375 C 31.664062 -33.769531 33.800781 -32.125 35.53125 -30 C 37.257812 -27.875 38.460938 -25.375 39.140625 -22.5 L 30.71875 -22.5 C 30.03125 -24.488281 28.8125 -26.054688 27.0625 -27.203125 C 25.320312 -28.347656 23.304688 -28.921875 21.015625 -28.921875 C 18.992188 -28.921875 17.1875 -28.457031 15.59375 -27.53125 C 14 -26.613281 12.753906 -25.332031 11.859375 -23.6875 C 10.972656 -22.039062 10.53125 -20.140625 10.53125 -17.984375 C 10.53125 -15.828125 10.972656 -13.925781 11.859375 -12.28125 C 12.753906 -10.632812 13.988281 -9.347656 15.5625 -8.421875 C 17.144531 -7.492188 18.945312 -7.03125 20.96875 -7.03125 C 23.320312 -7.03125 25.390625 -7.640625 27.171875 -8.859375 C 28.953125 -10.078125 30.222656 -11.710938 30.984375 -13.765625 L 39.40625 -13.765625 C 38.820312 -10.859375 37.65625 -8.316406 35.90625 -6.140625 C 34.164062 -3.960938 32 -2.273438 29.40625 -1.078125 C 26.820312 0.117188 23.957031 0.71875 20.8125 0.71875 Z M 20.8125 0.71875 "/></g></g></g><g fill="#000000" fill-opacity="1"><g transform="translate(154.425825, 260.289991)"><g><path d="M 17.15625 0.71875 C 14.175781 0.71875 11.546875 0.117188 9.265625 -1.078125 C 6.992188 -2.273438 5.210938 -3.941406 3.921875 -6.078125 C 2.640625 -8.222656 2 -10.703125 2 -13.515625 C 2 -16.316406 2.640625 -18.78125 3.921875 -20.90625 C 5.210938 -23.03125 6.992188 -24.691406 9.265625 -25.890625 C 11.546875 -27.085938 14.175781 -27.6875 17.15625 -27.6875 C 20.132812 -27.6875 22.765625 -27.085938 25.046875 -25.890625 C 27.328125 -24.691406 29.097656 -23.03125 30.359375 -20.90625 C 31.628906 -18.78125 32.265625 -16.316406 32.265625 -13.515625 C 32.265625 -10.703125 31.628906 -8.222656 30.359375 -6.078125 C 29.097656 -3.941406 27.328125 -2.273438 25.046875 -1.078125 C 22.765625 0.117188 20.132812 0.71875 17.15625 0.71875 Z M 9.703125 -13.515625 C 9.703125 -11.316406 10.394531 -9.515625 11.78125 -8.109375 C 13.175781 -6.710938 14.96875 -6.015625 17.15625 -6.015625 C 19.351562 -6.015625 21.132812 -6.710938 22.5 -8.109375 C 23.875 -9.515625 24.5625 -11.316406 24.5625 -13.515625 C 24.5625 -15.734375 23.875 -17.535156 22.5 -18.921875 C 21.132812 -20.316406 19.351562 -21.015625 17.15625 -21.015625 C 14.96875 -21.015625 13.175781 -20.316406 11.78125 -18.921875 C 10.394531 -17.535156 9.703125 -15.734375 9.703125 -13.515625 Z M 9.703125 -13.515625 "/></g></g></g><g fill="#000000" fill-opacity="1"><g transform="translate(188.69168, 260.289991)"><g><path d="M 3.90625 0 L 3.90625 -26.96875 L 9.703125 -26.96875 L 10.484375 -24.203125 C 11.472656 -25.359375 12.675781 -26.226562 14.09375 -26.8125 C 15.519531 -27.394531 17.085938 -27.6875 18.796875 -27.6875 C 22.773438 -27.6875 25.738281 -26.210938 27.6875 -23.265625 C 28.78125 -24.671875 30.15625 -25.757812 31.8125 -26.53125 C 33.476562 -27.300781 35.34375 -27.6875 37.40625 -27.6875 C 40.863281 -27.6875 43.609375 -26.613281 45.640625 -24.46875 C 47.679688 -22.332031 48.703125 -19.414062 48.703125 -15.71875 L 48.703125 0 L 40.890625 0 L 40.890625 -14.796875 C 40.890625 -16.710938 40.414062 -18.226562 39.46875 -19.34375 C 38.53125 -20.457031 37.257812 -21.015625 35.65625 -21.015625 C 33.976562 -21.015625 32.640625 -20.429688 31.640625 -19.265625 C 30.648438 -18.097656 30.15625 -16.539062 30.15625 -14.59375 L 30.15625 0 L 22.453125 0 L 22.453125 -14.796875 C 22.453125 -16.710938 21.976562 -18.226562 21.03125 -19.34375 C 20.09375 -20.457031 18.816406 -21.015625 17.203125 -21.015625 C 15.523438 -21.015625 14.191406 -20.429688 13.203125 -19.265625 C 12.210938 -18.097656 11.71875 -16.539062 11.71875 -14.59375 L 11.71875 0 Z M 3.90625 0 "/></g></g></g><g fill="#000000" fill-opacity="1"><g transform="translate(240.784, 260.289991)"><g><path d="M 20.234375 0.71875 C 18.554688 0.71875 17 0.472656 15.5625 -0.015625 C 14.125 -0.515625 12.84375 -1.210938 11.71875 -2.109375 L 11.71875 10.28125 L 3.90625 10.28125 L 3.90625 -26.96875 L 9.703125 -26.96875 L 10.578125 -23.890625 C 11.773438 -25.085938 13.195312 -26.019531 14.84375 -26.6875 C 16.488281 -27.351562 18.285156 -27.6875 20.234375 -27.6875 C 22.941406 -27.6875 25.320312 -27.078125 27.375 -25.859375 C 29.4375 -24.648438 31.054688 -22.984375 32.234375 -20.859375 C 33.421875 -18.734375 34.015625 -16.285156 34.015625 -13.515625 C 34.015625 -10.734375 33.421875 -8.269531 32.234375 -6.125 C 31.054688 -3.988281 29.4375 -2.3125 27.375 -1.09375 C 25.320312 0.113281 22.941406 0.71875 20.234375 0.71875 Z M 11.40625 -13.515625 C 11.40625 -11.316406 12.097656 -9.515625 13.484375 -8.109375 C 14.867188 -6.710938 16.660156 -6.015625 18.859375 -6.015625 C 21.078125 -6.015625 22.867188 -6.710938 24.234375 -8.109375 C 25.609375 -9.515625 26.296875 -11.316406 26.296875 -13.515625 C 26.296875 -15.703125 25.609375 -17.5 24.234375 -18.90625 C 22.867188 -20.3125 21.078125 -21.015625 18.859375 -21.015625 C 16.660156 -21.015625 14.867188 -20.3125 13.484375 -18.90625 C 12.097656 -17.5 11.40625 -15.703125 11.40625 -13.515625 Z M 11.40625 -13.515625 "/></g></g></g><g fill="#000000" fill-opacity="1"><g transform="translate(276.796531, 260.289991)"><g><path d="M 12.890625 0.515625 C 9.710938 0.515625 7.195312 -0.226562 5.34375 -1.71875 C 3.488281 -3.207031 2.5625 -5.253906 2.5625 -7.859375 C 2.5625 -10.359375 3.390625 -12.351562 5.046875 -13.84375 C 6.710938 -15.332031 8.953125 -16.078125 11.765625 -16.078125 L 21.53125 -16.078125 L 21.53125 -17.3125 C 21.53125 -18.644531 21.050781 -19.710938 20.09375 -20.515625 C 19.132812 -21.328125 17.882812 -21.734375 16.34375 -21.734375 C 15.070312 -21.734375 13.988281 -21.441406 13.09375 -20.859375 C 12.207031 -20.273438 11.644531 -19.503906 11.40625 -18.546875 L 3.90625 -18.546875 C 4.382812 -21.492188 5.707031 -23.753906 7.875 -25.328125 C 10.050781 -26.898438 12.851562 -27.6875 16.28125 -27.6875 C 20.320312 -27.6875 23.484375 -26.664062 25.765625 -24.625 C 28.046875 -22.59375 29.1875 -19.796875 29.1875 -16.234375 L 29.1875 0 L 23.375 0 L 22.5 -3.140625 C 20.132812 -0.703125 16.929688 0.515625 12.890625 0.515625 Z M 10.28125 -8.171875 C 10.28125 -7.242188 10.679688 -6.5 11.484375 -5.9375 C 12.285156 -5.375 13.351562 -5.09375 14.6875 -5.09375 C 16.644531 -5.09375 18.265625 -5.65625 19.546875 -6.78125 C 20.828125 -7.914062 21.503906 -9.390625 21.578125 -11.203125 L 14.171875 -11.203125 C 13.015625 -11.203125 12.078125 -10.925781 11.359375 -10.375 C 10.640625 -9.832031 10.28125 -9.097656 10.28125 -8.171875 Z M 10.28125 -8.171875 "/></g></g></g><g fill="#000000" fill-opacity="1"><g transform="translate(309.367074, 260.289991)"><g><path d="M 3.90625 0 L 3.90625 -26.96875 L 9.703125 -26.96875 L 10.53125 -23.9375 C 11.625 -25.207031 12.945312 -26.148438 14.5 -26.765625 C 16.0625 -27.378906 17.734375 -27.6875 19.515625 -27.6875 C 23.046875 -27.6875 25.8125 -26.585938 27.8125 -24.390625 C 29.820312 -22.203125 30.828125 -19.242188 30.828125 -15.515625 L 30.828125 0 L 23.015625 0 L 23.015625 -14.6875 C 23.015625 -16.675781 22.539062 -18.226562 21.59375 -19.34375 C 20.65625 -20.457031 19.347656 -21.015625 17.671875 -21.015625 C 15.890625 -21.015625 14.453125 -20.394531 13.359375 -19.15625 C 12.265625 -17.925781 11.71875 -16.25 11.71875 -14.125 L 11.71875 0 Z M 3.90625 0 "/></g></g></g><g clip-path="url(#eb0d684e96)"><g fill="#000000" fill-opacity="1"><g transform="translate(343.581547, 260.289991)"><g><path d="M 4 10.28125 L 4 3.546875 L 7.09375 3.546875 C 8.695312 3.546875 9.847656 3.296875 10.546875 2.796875 C 11.253906 2.304688 11.832031 1.390625 12.28125 0.046875 L 12.59375 -0.875 L 0.46875 -26.96875 L 9.09375 -26.96875 L 16.34375 -10.28125 L 18.796875 -17.15625 L 22.40625 -26.96875 L 30.78125 -26.96875 L 18.75 3.1875 C 18.03125 5.03125 17.207031 6.46875 16.28125 7.5 C 15.363281 8.53125 14.21875 9.25 12.84375 9.65625 C 11.46875 10.070312 9.738281 10.28125 7.65625 10.28125 Z M 4 10.28125 "/></g></g></g></g><g clip-path="url(#72500b4c3b)"><path fill="#000000" d="M 99.910156 0 L 99.910156 273.5 L 86.914062 273.5 L 86.914062 0 Z M 99.910156 0 " fill-opacity="1" fill-rule="nonzero"/></g><g clip-path="url(#822bbcde3a)"><path fill="#000000" d="M 95.847656 2.296875 L 95.847656 271.199219 L 84.761719 271.199219 L 84.761719 2.296875 Z M 95.847656 2.296875 " fill-opacity="1" fill-rule="nonzero"/></g><g clip-path="url(#c7d9da47b4)"><path stroke-linecap="butt" transform="matrix(0, 0.971862, -0.971862, 0, 95.847797, 2.311222)" fill="none" stroke-linejoin="miter" d="M 0.00131466 0.000144463 L 276.661034 0.000144463 L 276.661034 11.407052 L 0.00131466 11.407052 Z M 0.00131466 0.000144463 " stroke="#ffffff" stroke-width="1.542021" stroke-opacity="1" stroke-miterlimit="4"/></g><g clip-path="url(#f62b20cce8)"><g clip-path="url(#df9b181c81)"><path fill="#ffffff" d="M 93.414062 127.777344 L 93.414062 145.714844 L 0.210938 145.714844 L 0.210938 127.777344 Z M 93.414062 127.777344 " fill-opacity="1" fill-rule="nonzero"/></g></g><g clip-path="url(#31193bd8be)"><g clip-path="url(#9a1ba7fb3b)"><path stroke-linecap="butt" transform="matrix(0, 0.971862, -0.971862, 0, 93.405723, 127.775835)" fill="none" stroke-linejoin="miter" d="M 3.852087 -0.000542152 L 14.599822 -0.000542152 C 16.726056 -0.000542152 18.454376 1.723758 18.454376 3.854012 L 18.454376 92.018397 C 18.454376 94.148651 16.726056 95.872951 14.599822 95.872951 L 3.852087 95.872951 C 1.725852 95.872951 0.00155201 94.148651 0.00155201 92.018397 L 0.00155201 3.854012 C 0.00155201 1.723758 1.725852 -0.000542152 3.852087 -0.000542152 Z M 3.852087 -0.000542152 " stroke="#000000" stroke-width="1.542021" stroke-opacity="1" stroke-miterlimit="4"/></g></g><g clip-path="url(#f4a59e7e82)"><g clip-path="url(#e2e9d89628)"><path fill="#000000" d="M 4.574219 132.714844 L 12.644531 132.714844 L 12.644531 140.785156 L 4.574219 140.785156 Z M 4.574219 132.714844 " fill-opacity="1" fill-rule="nonzero"/></g></g></svg>